<svg xmlns="http://www.w3.org/2000/svg" xmlns:xlink="http://www.w3.org/1999/xlink" version="1.1" id="Layer_1" x="0px" fill="#c7c7c7" y="0px" viewBox="0 0 512 512" style="enable-background:new 0 0 512 512;" xml:space="preserve"><g><path d="M167.48,326.6c8.21,21.97,27.89,35.58,50.39,35.58c58.81,0,117.63,0.01,176.44,0.02c2.92,0,5.86-0.1,8.74,0.21   c11.74,1.29,20.14,9.49,21.68,20.96c1.89,14.14-3.74,25.46-15.23,29.78c-2.93,1.1-6.29,1.48-9.45,1.48   c-62.65,0.08-125.3,0.39-187.95-0.08c-33.49-0.25-58.57-17.01-77.45-43.61c-12.26-17.28-20.69-36.62-25.68-57.14   c-5.32-21.89-9.5-44.05-13.98-66.14c-4.48-22.1-8.76-44.24-13.01-66.38c-4.17-21.69-8.16-43.42-12.29-65.12   c-3.04-15.97-6.08-31.95-9.39-47.87c-0.35-1.7-2.23-3.77-3.88-4.39c-12.03-4.57-24.2-8.75-36.29-13.16   C9.85,46.99,3.77,36.37,4.71,24.11C5.64,11.96,13.44,2.35,24.23,0.34c2.06-0.38,4.41-0.53,6.37,0.07   C49.8,6.25,69,12.13,88.09,18.35c6.72,2.19,11.52,7.13,13.96,13.78c3.32,9.06,6.32,18.25,9.16,27.47c1.04,3.37,2.72,4.61,6.24,4.6   c89.06-0.14,178.13-0.19,267.19-0.24c27.79-0.02,55.59-0.14,83.38,0.11c6.69,0.06,13.51,0.79,20.03,2.26   c12.12,2.72,18.08,10.7,19.21,23.23c0.85,9.4-2.65,17.83-5.08,26.47c-4.95,17.55-10.27,35-15.44,52.49   c-5.82,19.7-11.7,39.38-17.47,59.09c-5.77,19.71-11.4,39.46-17.19,59.17c-3.23,10.98-7.66,21.35-16.09,29.53   c-7,6.8-15.47,9.62-25.08,9.63c-29.64,0.02-59.27,0.14-88.91,0.13c-49.44-0.01-98.88-0.09-148.32-0.1   C171.76,325.96,169.86,326.34,167.48,326.6z M290.11,199.41c-32.5,0.21-59.17,14.2-82.07,36.44c-2.28,2.22-3.72,6.13-4.01,9.4   c-0.57,6.35,2.62,11.44,8.42,14.06c5.72,2.59,11.34,1.67,16.34-2.46c5.78-4.77,11.32-9.96,17.59-14   c24.17-15.58,49.54-18.39,76.03-6c10.68,4.99,19.76,12.17,28.41,20.06c6.25,5.7,15.16,5.42,20.77-0.21   c5.78-5.8,6.18-14.76,0.09-20.68C349.03,214.02,322.7,199.98,290.11,199.41z M330.16,162.48c0.06,11.68,9.76,21.39,21.37,21.39   c11.72,0,21.86-10.16,21.69-21.76c-0.16-11.52-10.11-21.41-21.59-21.45C339.92,140.61,330.1,150.59,330.16,162.48z M249.36,162.48   c0.04-11.81-9.92-21.88-21.58-21.82c-11.5,0.06-21.47,9.97-21.58,21.45c-0.11,11.66,9.92,21.73,21.68,21.76   C239.41,183.89,249.32,174.02,249.36,162.48z"></path><path d="M345.73,471.92c0.02-22.05,17.72-39.48,39.97-39.36c22.03,0.12,39.54,17.93,39.4,40.07   c-0.15,21.85-17.75,39.33-39.63,39.37C363.05,512.04,345.7,494.54,345.73,471.92z"></path><path d="M266.1,472.44c-0.05,22.28-17.49,39.6-39.77,39.52c-22.21-0.08-39.66-17.69-39.48-39.86c0.18-22.4,17.5-39.6,39.81-39.53   C248.93,432.63,266.16,450.05,266.1,472.44z"></path></g></svg>